<?xml version="1.0" encoding="UTF-8" standalone="no"?>
<!-- Created with Inkscape (http://www.inkscape.org/) -->

<svg
   version="1.1"
   id="svg1"
   width="113.181"
   height="37.067631"
   viewBox="0 0 113.181 37.067631"
   sodipodi:docname="logo-vectors.ai"
   xmlns:inkscape="http://www.inkscape.org/namespaces/inkscape"
   xmlns:sodipodi="http://sodipodi.sourceforge.net/DTD/sodipodi-0.dtd"
   xmlns="http://www.w3.org/2000/svg"
   xmlns:svg="http://www.w3.org/2000/svg">
  <defs
     id="defs1" />
  <sodipodi:namedview
     id="namedview1"
     pagecolor="#ffffff"
     bordercolor="#000000"
     borderopacity="0.25"
     inkscape:showpageshadow="2"
     inkscape:pageopacity="0.0"
     inkscape:pagecheckerboard="0"
     inkscape:deskcolor="#d1d1d1">
    <inkscape:page
       x="0"
       y="0"
       inkscape:label="1"
       id="page1"
       width="113.181"
       height="37.067631"
       margin="0"
       bleed="0"
       inkscape:export-filename="..\..\..\source\repos\Ormeo\Ormeo.App\wwwroot\img\tic\logo-tic-dark.svg"
       inkscape:export-xdpi="96"
       inkscape:export-ydpi="96" />
    <inkscape:page
       x="811.72479"
       y="-0.60239065"
       inkscape:label="2"
       id="page4"
       width="793.33331"
       height="560"
       margin="0"
       bleed="0" />
  </sodipodi:namedview>
  <g
     id="layer-MC0"
     inkscape:groupmode="layer"
     inkscape:label="Laag 1"
     transform="translate(-1.6085002,-0.60239065)">
    <path
       id="path2"
       d="m 50.357722,37.669681 h 9.669615 V 6.6095756 h -9.669615 z"
       style="fill:#ffffff;fill-opacity:1;fill-rule:nonzero;stroke:none;stroke-width:0.573455" />
    <path
       id="path3"
       d="M 81.385145,33.420713 V 10.85808 H 114.71614 V 6.6099166 H 71.715525 V 37.670023 h 43.074015 v -4.24931 z"
       style="fill:#ffffff;fill-opacity:1;fill-rule:nonzero;stroke:none;stroke-width:0.573455" />
    <path
       id="path4"
       d="M 11.278119,0.60239063 H 1.6085003 V 37.670023 H 40.158518 v -4.24931 H 11.278119 V 10.858081 H 40.158518 V 6.6099176 H 11.278119 Z"
       style="fill:#ffffff;fill-opacity:1;fill-rule:nonzero;stroke:none;stroke-width:0.573455" />
    <path
       id="path5"
       d="M 0,0 H 595 V 420 H 0 Z"
       style="fill:#212529;fill-opacity:1;fill-rule:nonzero;stroke:none"
       transform="matrix(1.3333333,0,0,-1.3333333,813.33333,560)" />
    <path
       id="path6"
       d="m 283.826,177.681 h 16.862 v 54.163 h -16.862 z"
       style="fill:#fcfcfc;fill-opacity:1;fill-rule:nonzero;stroke:none"
       transform="matrix(1.3333333,0,0,-1.3333333,813.33333,560)" />
    <path
       id="path7"
       d="m 0,0 v 39.345 h 58.123 v 7.408 H -16.862 V -7.41 H 58.251 V 0 Z"
       style="fill:#fcfcfc;fill-opacity:1;fill-rule:nonzero;stroke:none"
       transform="matrix(1.3333333,0,0,-1.3333333,1263.9093,313.2128)" />
    <path
       id="path8"
       d="m 0,0 h -16.862 v -64.639 h 67.224 v 7.41 H 0 v 39.345 h 50.362 v 7.408 H 0 Z"
       style="fill:#fcfcfc;fill-opacity:1;fill-rule:nonzero;stroke:none"
       transform="matrix(1.3333333,0,0,-1.3333333,1100.9047,236.90747)" />
  </g>
</svg>
